<svg width="18" height="18" viewBox="0 0 18 18" fill="none" xmlns="http://www.w3.org/2000/svg">
<path d="M1.91119 14.2065C2.99803 16.2615 5.16825 17 9 17C14.2946 17 16.4168 15.5901 16.892 11.245M1.91119 14.2065C1.26281 12.9805 1 11.2859 1 9C1 2.88235 2.88235 1 9 1C15.1176 1 17 2.88235 17 9C17 9.82309 16.9659 10.5695 16.892 11.245M1.91119 14.2065L4.84545 11.2722C5.58055 10.5371 6.77239 10.5371 7.5075 11.2722L7.66898 11.4337C8.40408 12.1688 9.59592 12.1688 10.331 11.4337L12.3749 9.38985C13.11 8.65475 14.3018 8.65475 15.0369 9.38985L16.892 11.245M7.768 6.03153C7.768 6.99059 6.98965 7.76894 6.03059 7.76894C5.07247 7.76894 4.29412 6.99059 4.29412 6.03153C4.29412 5.07247 5.07247 4.29412 6.03059 4.29412C6.98965 4.29412 7.768 5.07247 7.768 6.03153Z" stroke="#454852" stroke-width="1.5" stroke-linecap="round" stroke-linejoin="round"/>
</svg>
