<svg width="21" height="16" viewBox="0 0 21 16" fill="none" xmlns="http://www.w3.org/2000/svg">
<path d="M14.8772 11L19 13C19 13 19.5 11 19.5 8C19.5 5 19 3 19 3L14.8772 5M14.8772 11C14.9538 10.0994 15 9.07282 15 8C15 6.92718 14.9538 5.9006 14.8772 5M14.8772 11C14.7318 12.7111 14.477 13.9674 14.2222 14.2222C13.8333 14.6111 11.1111 15 8 15C4.88889 15 2.16667 14.6111 1.77778 14.2222C1.38889 13.8333 1 11.1111 1 8C1 4.88889 1.38889 2.16667 1.77778 1.77778C2.16667 1.38889 4.88889 1 8 1C11.1111 1 13.8333 1.38889 14.2222 1.77778C14.477 2.03256 14.7318 3.28891 14.8772 5" stroke="#454852" stroke-width="1.5" stroke-linecap="round" stroke-linejoin="round"/>
</svg>
