<svg width="19" height="19" viewBox="0 0 19 19" fill="none" xmlns="http://www.w3.org/2000/svg">
<path d="M16.4445 6.6875L12.4445 2.6875M16.4445 6.6875L11.446 11.6859C10.7873 12.3446 9.98784 12.8646 9.06993 13.0229C8.14311 13.1828 6.99294 13.236 6.44444 12.6875C5.89595 12.139 5.94915 10.9888 6.109 10.062C6.26731 9.1441 6.78735 8.3446 7.446 7.68595L12.4445 2.6875M16.4445 6.6875C16.4445 6.6875 19.4444 3.6875 17.4444 1.6875C15.4444 -0.3125 12.4445 2.6875 12.4445 2.6875M18 9.5C18 16 16 18 9.5 18C3 18 1 16 1 9.5C1 3 3 1 9.5 1" stroke="#454852" stroke-width="1.5" stroke-linecap="round" stroke-linejoin="round"/>
</svg>
