<svg width="16" height="16" viewBox="0 0 16 16" fill="none" xmlns="http://www.w3.org/2000/svg">
<path d="M1.79729 12.5557C2.74828 14.3538 4.64722 15 8 15C12.6327 15 14.4897 13.7663 14.9055 9.96437M1.79729 12.5557C1.22996 11.4829 1 10.0002 1 8C1 2.64706 2.64706 1 8 1C13.3529 1 15 2.64706 15 8C15 8.7202 14.9702 9.37332 14.9055 9.96437M1.79729 12.5557L4.36477 9.98818C5.00799 9.34496 6.05084 9.34496 6.69406 9.98818L6.83536 10.1295C7.47857 10.7727 8.52143 10.7727 9.16465 10.1295L10.953 8.34112C11.5962 7.6979 12.6391 7.6979 13.2823 8.34112L14.9055 9.96437M6.922 5.40259C6.922 6.24176 6.24094 6.92282 5.40176 6.92282C4.56341 6.92282 3.88235 6.24176 3.88235 5.40259C3.88235 4.56341 4.56341 3.88235 5.40176 3.88235C6.24094 3.88235 6.922 4.56341 6.922 5.40259Z" stroke="#A19791" stroke-width="1.5" stroke-linecap="round" stroke-linejoin="round"/>
</svg>
