<svg width="20" height="20" viewBox="0 0 20 20" fill="none" xmlns="http://www.w3.org/2000/svg">
<path d="M18.9994 17.1864V14.4767C19.0104 14.0337 18.8579 13.6021 18.5709 13.264C17.7615 12.3106 14.9855 11.7008 13.8851 11.935C13.0273 12.1176 12.4272 12.9788 11.8405 13.5644C9.57465 12.2785 7.69858 10.4062 6.41019 8.14484C6.9969 7.55929 7.85987 6.96036 8.04281 6.10428C8.27713 5.00777 7.66813 2.24949 6.72131 1.43684C6.38828 1.151 5.96247 0.995773 5.52325 1.00009H2.80811C1.77358 1.00106 0.912875 1.92895 1.00706 2.96919C1 11.935 8 19 17.0264 18.9929C18.0722 19.0873 19.0036 18.2223 18.9994 17.1864Z" stroke="#454852" stroke-width="1.5" stroke-linecap="round" stroke-linejoin="round"/>
</svg>
