<svg width="24" height="20" viewBox="0 0 24 20" fill="none" xmlns="http://www.w3.org/2000/svg">
<path d="M19 13C21.2091 13 23 14.7909 23 17V19H21M16 8.87397C17.7252 8.42993 19 6.86383 19 4.99999C19 3.13615 17.7252 1.57005 16 1.12601M13 5C13 7.20914 11.2091 9 9 9C6.79086 9 5 7.20914 5 5C5 2.79086 6.79086 1 9 1C11.2091 1 13 2.79086 13 5ZM5 13H13C15.2091 13 17 14.7909 17 17V19H1V17C1 14.7909 2.79086 13 5 13Z" stroke="#454852" stroke-width="1.5" stroke-linecap="round" stroke-linejoin="round"/>
</svg>
