<svg width="19" height="19" viewBox="0 0 19 19" fill="none" xmlns="http://www.w3.org/2000/svg">
<path d="M1 4.5C1 2.567 2.567 1 4.5 1V1C6.433 1 8 2.567 8 4.5V4.5C8 6.433 6.433 8 4.5 8V8C2.567 8 1 6.433 1 4.5V4.5Z" stroke="#454852" stroke-width="1.5" stroke-linecap="round" stroke-linejoin="round"/>
<path d="M1 14.5C1 12.567 2.567 11 4.5 11V11C6.433 11 8 12.567 8 14.5V14.5C8 16.433 6.433 18 4.5 18V18C2.567 18 1 16.433 1 14.5V14.5Z" stroke="#454852" stroke-width="1.5" stroke-linecap="round" stroke-linejoin="round"/>
<path d="M11 4.5C11 2.567 12.567 1 14.5 1V1C16.433 1 18 2.567 18 4.5V4.5C18 6.433 16.433 8 14.5 8V8C12.567 8 11 6.433 11 4.5V4.5Z" stroke="#454852" stroke-width="1.5" stroke-linecap="round" stroke-linejoin="round"/>
<path d="M11 14.5C11 12.567 12.567 11 14.5 11V11C16.433 11 18 12.567 18 14.5V14.5C18 16.433 16.433 18 14.5 18V18C12.567 18 11 16.433 11 14.5V14.5Z" stroke="#454852" stroke-width="1.5" stroke-linecap="round" stroke-linejoin="round"/>
</svg>
