<svg width="35" height="35" viewBox="0 0 35 35" fill="none" xmlns="http://www.w3.org/2000/svg">
<g clip-path="url(#clip0_0_7)">
<path d="M26.6659 11.002C26.437 10.7796 26.1159 10.6785 25.8016 10.7302C25.4868 10.7817 25.2149 10.9794 25.0688 11.263C24.5665 12.2388 23.9285 13.1356 23.1778 13.9284C23.2526 13.3557 23.2903 12.7796 23.2903 12.202C23.2903 11.0937 23.1418 9.95311 22.8487 8.81161C21.885 5.06228 19.3579 1.89152 15.9157 0.112398C15.6161 -0.0424449 15.259 -0.0370083 14.9641 0.126896C14.6693 0.290868 14.4762 0.591493 14.4497 0.927759C14.1814 4.33498 12.4264 7.4348 9.632 9.43441C9.59502 9.46106 9.5583 9.48804 9.52159 9.51489C9.44554 9.57053 9.37386 9.62315 9.30688 9.66731C9.29641 9.67429 9.286 9.68141 9.2758 9.68872C7.51836 10.947 6.06825 12.6243 5.08208 14.5398C4.07999 16.4882 3.5719 18.579 3.5719 20.754C3.5719 21.862 3.72043 23.0026 4.01341 24.1443C5.55949 30.1619 10.9749 34.3648 17.1827 34.3648C24.6874 34.3648 30.7928 28.259 30.7928 20.754C30.7928 17.0531 29.3272 13.5897 26.6659 11.002Z" fill="#FF731D"/>
<circle cx="16.1717" cy="20.2146" r="4.04293" fill="white"/>
</g>
<defs>
<clipPath id="clip0_0_7">
<rect width="34.3649" height="34.3649" fill="white"/>
</clipPath>
</defs>
</svg>
