<svg width="20" height="20" viewBox="0 0 20 20" fill="none" xmlns="http://www.w3.org/2000/svg">
<path d="M2.02509 15.8573C3.24779 18.1692 5.68928 19 10 19C15.9564 19 18.3439 17.4138 18.8786 12.5256M2.02509 15.8573C1.29566 14.478 1 12.5716 1 10C1 3.11765 3.11765 1 10 1C16.8824 1 19 3.11765 19 10C19 10.926 18.9617 11.7657 18.8786 12.5256M2.02509 15.8573L5.32613 12.5562C6.15312 11.7292 7.49394 11.7292 8.32094 12.5562L8.5026 12.7379C9.32959 13.5649 10.6704 13.5649 11.4974 12.7379L13.7967 10.4386C14.6237 9.61159 15.9645 9.61159 16.7915 10.4386L18.8786 12.5256M8.614 6.66047C8.614 7.73941 7.73835 8.61506 6.65941 8.61506C5.58153 8.61506 4.70588 7.73941 4.70588 6.66047C4.70588 5.58153 5.58153 4.70588 6.65941 4.70588C7.73835 4.70588 8.614 5.58153 8.614 6.66047Z" stroke="black" stroke-width="2" stroke-linecap="round" stroke-linejoin="round"/>
</svg>
